<?xml version="1.0" ?><svg data-name="Layer 5" id="Layer_5" viewBox="0 0 32 32" xmlns="http://www.w3.org/2000/svg"><defs><style>.cls-1{fill:#fff;}.cls-2{fill:#ffbbbc;}.cls-3{fill:#361041;}.cls-4{fill:#f41870;}</style></defs><circle class="cls-1" cx="16.78" cy="16.06" r="12.84"/><polygon class="cls-2" points="3.94 19.88 4.82 19.27 5.25 16.74 6.86 13.21 9.29 10.44 12.82 8.75 16.48 8.21 20.81 8.95 23.89 10.72 26.1 13.07 27.46 15.96 27.81 19.29 28.74 20.02 27.81 21.67 20.68 22.38 13.81 22.38 6.52 21.55 3.94 20.73 3.94 19.88"/><path class="cls-3" d="M15.23,19a3.58,3.58,0,0,0,1,.62c.43.08.62-.24.91-.5s.77-.66,1.14-1c1.11-1,3.29-2.86,2.9-4.57A2.19,2.19,0,0,0,18.34,12a3.49,3.49,0,0,0-1.95,2.05,6.81,6.81,0,0,0-1.3-1.53c-1.84-1.5-4.3-.34-4,2.08C11.4,16.61,13.71,18,15.23,19Z"/><path class="cls-2" d="M6,11.32A13.26,13.26,0,0,1,7.8,9.76,13.69,13.69,0,0,1,12,7.42c.24-.07.09-.25,0-.31s-.94.3-1.15.39A12.56,12.56,0,0,0,8.57,8.8,20,20,0,0,0,6.4,10.52c-.32.29-.62.59-.91.91-.11.12-.66.6-.67.74C4.77,12.8,5.87,11.46,6,11.32Z"/><path class="cls-2" d="M8,7c.23-.13,1.32-.4,1.28-.64s-.66,0-.8.06A10.71,10.71,0,0,0,5.81,8.24c-.11.09-1,.79-.69,1s.49-.37.62-.49a14.2,14.2,0,0,1,2-1.53C7.61,7.27,7.69,7.23,8,7Z"/><path class="cls-2" d="M30.06,22.38c-.23,0-.76.61-.93.73a5.4,5.4,0,0,1-1.25.62,14.24,14.24,0,0,1-2.89.73,26.11,26.11,0,0,1-6.38.17c-.27,0-1.08-.23-1.31-.07-.39.28.9.35,1,.35a27.85,27.85,0,0,0,3.16.15,22,22,0,0,0,6-.84,7.14,7.14,0,0,0,1.83-.81C29.34,23.35,30.58,22.38,30.06,22.38Z"/><path class="cls-2" d="M28.52,24.7c-.29-.09-1.25.49-1.56.59a8.27,8.27,0,0,1-1.92.37c-.14,0-1.42,0-1.1.27s1.42,0,1.76,0a10.07,10.07,0,0,0,1.87-.48C27.65,25.38,29,24.89,28.52,24.7Z"/><path class="cls-1" d="M8.09,17.9c.21.09,1-.42,1.19-.51a2.81,2.81,0,0,0,.7-.33s.49-.35.08-.35a4.46,4.46,0,0,0-1.41.64C8.55,17.39,7.67,17.73,8.09,17.9Z"/><path class="cls-1" d="M10.92,19.25c.25.15,1.19-1,.81-1C11.53,18.21,10.66,19.11,10.92,19.25Z"/><path class="cls-1" d="M9.45,14.54c-.07-.34-1.46.11-1.48.27C7.92,15.19,9.5,14.81,9.45,14.54Z"/><path class="cls-1" d="M20.48,18.21c-.42,0,.54,1.48.9,1.39S20.67,18.24,20.48,18.21Z"/><path class="cls-1" d="M22.54,17.25c.26.14.77.68,1,.71.6.06-.08-.49-.24-.6s-.91-.68-1.09-.62C21.8,16.9,22.33,17.14,22.54,17.25Z"/><path class="cls-1" d="M24.23,14.58c.3-.11.21-.21-.05-.37a2.22,2.22,0,0,0-1.08-.15c-.08,0-.65.24-.18.3A6,6,0,0,0,24.23,14.58Z"/><path class="cls-1" d="M15.14,10.46c-.05-.15-.21-1.09-.45-1s.1,1,.17,1.13C15,11.09,15.2,10.75,15.14,10.46Z"/><path class="cls-1" d="M18.14,9.62c-.26-.09-.61,1-.37,1.06S18.38,9.7,18.14,9.62Z"/><path class="cls-1" d="M21.48,11.93c.12-.13.94-.9.27-.75a2.79,2.79,0,0,0-.5.47C21.21,11.78,21.25,12.15,21.48,11.93Z"/><path class="cls-1" d="M17.71,19.7c-.31,0-.13.87.07.9S18,19.7,17.71,19.7Z"/><path class="cls-1" d="M13.85,19.64c-.27-.1-.45.61-.31.73S14.12,19.74,13.85,19.64Z"/><path class="cls-1" d="M9.67,12.44c.23.11.31-.48-.18-.45S9.49,12.36,9.67,12.44Z"/><path class="cls-1" d="M12.12,10.23c-.39-.28-.23.25-.14.42S12.53,10.54,12.12,10.23Z"/><path class="cls-3" d="M3.43,22.34a18.24,18.24,0,0,0,4.16.74c2.15.22,4.33.2,6.49.24,3.6.06,7.16.05,10.75-.17,1.42-.08,5-.21,4.77-2.48a1.27,1.27,0,0,0-.81-1c-.17-.09-.42-.16-.5-.28s0-.78-.05-1a11.37,11.37,0,0,0-.9-3.94,11.33,11.33,0,0,0-5.91-5.75,10.87,10.87,0,0,0-2.15-.72,10.43,10.43,0,0,1-1.73-.18c-.19-.09-.28-.37-.52-.47a1.82,1.82,0,0,0-.7-.06,2.06,2.06,0,0,0-.55.06c-.4.1-.47.33-.76.51a10.51,10.51,0,0,1-1.94.41,12.25,12.25,0,0,0-2,.69,11.42,11.42,0,0,0-3.13,2.2,14.54,14.54,0,0,0-3.54,7.41c-.14.77-1.06,1-1.6,1.53C1.57,20.87,2.3,21.94,3.43,22.34ZM5.3,18.59a11.17,11.17,0,0,1,.45-1.9,13.46,13.46,0,0,1,2.14-3.94,10.44,10.44,0,0,1,8.22-4,11.14,11.14,0,0,1,8.31,3.14,9.73,9.73,0,0,1,2.88,6.56c0,.76.19,1.64-.64,1.93a18.07,18.07,0,0,1-2.86.4,47.28,47.28,0,0,1-9.21.5,29.91,29.91,0,0,1-4-.39A25,25,0,0,1,6,20C5.27,19.7,5.16,19.38,5.3,18.59ZM4.5,20c0-.09.08-.09.13-.14.31-.24.23,0,.38.13a6.5,6.5,0,0,0,.59.32,10.57,10.57,0,0,0,1.25.37,40.1,40.1,0,0,0,8.6,1.08,59.12,59.12,0,0,0,7.75-.34A28.76,28.76,0,0,0,26.26,21c.77-.16,1.3-.31,1.43-1.18.19.09.45.2.4.45-.25,1.26-3.05,1.21-4,1.34q-2,.25-4.08.45a46.56,46.56,0,0,1-11.72-.79C7.67,21.19,4.27,20.77,4.5,20Z"/><path class="cls-4" d="M16.37,18.71s-6.23-3.43-3.86-5.77c1.52-.89,3.87,2.4,3.87,2.4s1.92-3.56,3.28-2.4C21.86,14.63,16.37,18.71,16.37,18.71Z"/></svg>